# xmcd
#
# Track frame offsets: 
#        151
#        13060
#        26149
#        39312
#        54349
#        66572
#        79363
#        94924
#        107265
#        120374
#        132193
#        148662
#
# Disc length: 2248 seconds
#
# Revision: 3
# Processed by: cddbd v1.5.2PL0 Copyright (c) Steve Scherf et al.
# Submitted via: ExactAudioCopy v0.99pb5
#
DISCID=9f08c60c
DTITLE=Celia Cruz y La Sonora Matancera - La Reina Del Tumbao, Vol.2
DYEAR=2004
DGENRE=Salsa
TTITLE0=El Pescador
TTITLE1=A Burujón Puñao
TTITLE2=Bravo
TTITLE3=Olga
TTITLE4=Más Fuerte Que Tu Amor
TTITLE5=Humo
TTITLE6=Te Solté la Rienda
TTITLE7=Ojos Malos
TTITLE8=La Adivinanza
TTITLE9=Ay Cosita Linda
TTITLE10=Ahora Es Cuando
TTITLE11=Sé Que Llorarás
EXTD=YEAR: 2004
EXTT0=
EXTT1=
EXTT2=
EXTT3=
EXTT4=
EXTT5=
EXTT6=
EXTT7=
EXTT8=
EXTT9=
EXTT10=
EXTT11=
PLAYORDER=
